<svg width="25" height="25" viewBox="0 0 25 25" fill="none" xmlns="http://www.w3.org/2000/svg">
<path d="M3.74129 10.4232L3.7476 10.4267L3.75402 10.43C4.60476 10.8692 5.54073 11.0857 6.55345 11.0857C7.56601 11.0857 8.49371 10.8692 9.32653 10.4277L9.32654 10.4277L9.33026 10.4257C10.1718 9.96952 10.8469 9.3656 11.3439 8.61229L11.3439 8.61231L11.3472 8.60718C11.8471 7.82709 12.0978 6.96507 12.0978 6.0318C12.0978 5.09846 11.847 4.24421 11.3439 3.48154C10.8468 2.728 10.171 2.13354 9.32846 1.69735C8.49576 1.23526 7.56723 1.0081 6.55345 1.0081C5.53772 1.0081 4.59945 1.23609 3.74768 1.69737C2.92375 2.13456 2.2591 2.72956 1.76301 3.48154L2.13443 3.72658L1.76301 3.48154C1.25987 4.24421 1.00907 5.09846 1.00907 6.0318C1.00907 6.96507 1.25976 7.82709 1.75969 8.60718L1.75965 8.60721L1.76301 8.61229C2.25809 9.36274 2.92061 9.96633 3.74129 10.4232ZM2.87862 21.5076L2.57878 21.8519L2.92108 22.1541L4.77006 23.7862L5.13459 24.108L5.43541 23.726L13.6879 13.2458L22.1249 3.46056L22.424 3.11363L22.0781 2.8133L20.1983 1.18113L19.8313 0.862501L19.5336 1.24662L11.5294 11.5733L2.87862 21.5076ZM15.6672 23.3294L15.6672 23.3295L15.6755 23.3339C16.5083 23.7754 17.436 23.992 18.4486 23.992C19.4611 23.992 20.3888 23.7754 21.2216 23.3339L21.2217 23.3339L21.2254 23.3319C22.0669 22.8758 22.742 22.2718 23.239 21.5185C23.7421 20.7559 23.9929 19.9016 23.9929 18.9683C23.9929 18.036 23.7427 17.1826 23.2408 16.4207C22.7444 15.6471 22.0685 15.0411 21.2236 14.6036C20.3909 14.1415 19.4624 13.9143 18.4486 13.9143C17.4339 13.9143 16.5046 14.1419 15.6713 14.6048C14.847 15.0427 14.1744 15.6473 13.6599 16.4153L13.6581 16.418C13.155 17.1807 12.9042 18.0349 12.9042 18.9683C12.9042 19.9016 13.155 20.7559 13.6581 21.5185L13.658 21.5186L13.6634 21.5264C14.1779 22.2723 14.8482 22.8735 15.6672 23.3294ZM19.6402 20.4525L19.6401 20.4525L19.6332 20.461C19.3041 20.8645 18.9183 21.0475 18.4486 21.0475C18.0032 21.0475 17.6121 20.8673 17.2569 20.4525C16.8993 20.035 16.7203 19.5477 16.7203 18.9683C16.7203 18.3889 16.8993 17.9015 17.2569 17.484L17.2569 17.484L17.2626 17.4772C17.6204 17.0427 18.0103 16.8588 18.4486 16.8588C18.8939 16.8588 19.285 17.039 19.6402 17.4537C19.9956 17.8687 20.1768 18.3651 20.1768 18.9683C20.1768 19.5477 19.9978 20.035 19.6402 20.4525ZM7.74225 7.54967C7.38781 7.96204 6.99759 8.14128 6.55345 8.14128C6.10811 8.14128 5.71697 7.96107 5.36177 7.54632C5.00642 7.1314 4.82517 6.63493 4.82517 6.0318C4.82517 5.45241 5.0042 4.96503 5.36177 4.54752C5.71698 4.13276 6.10811 3.95255 6.55345 3.95255C6.99879 3.95255 7.38992 4.13276 7.74513 4.54752C8.1027 4.96503 8.28173 5.45241 8.28173 6.0318C8.28173 6.60989 8.10331 7.10975 7.74225 7.54967Z" stroke="#F64F00" stroke-width="0.919355"/>
</svg>
