<svg width="57" height="57" viewBox="0 0 57 57" fill="none" xmlns="http://www.w3.org/2000/svg">
<path d="M23.8635 2.65715C26.2651 -0.27281 30.7349 -0.272814 33.1364 2.65714L36.1981 6.39249C37.4898 7.96838 39.4073 8.89504 41.4415 8.92573L46.2612 8.99844C50.0401 9.05544 52.8298 12.5617 52.0434 16.2752L51.0415 21.0058C50.619 23.0009 51.0922 25.0817 52.336 26.6957L55.2844 30.5217C57.5983 33.5244 56.6021 37.899 53.2207 39.5961L48.9097 41.7598C47.0905 42.6728 45.7641 44.342 45.282 46.3235L44.1388 51.0218C43.2417 54.709 39.2133 56.6534 35.784 55.0598L31.4101 53.0272C29.5643 52.1694 27.4357 52.1694 25.5899 53.0272L21.216 55.0598C17.7867 56.6534 13.7583 54.709 12.8612 51.0218L11.718 46.3235C11.2359 44.342 9.90948 42.6728 8.09028 41.7598L3.77931 39.5961C0.397882 37.899 -0.598315 33.5244 1.71559 30.5217L4.66397 26.6957C5.90776 25.0817 6.38102 23.0009 5.95849 21.0058L4.95665 16.2752C4.17021 12.5617 6.95991 9.05544 10.7388 8.99844L15.5585 8.92573C17.5927 8.89504 19.5102 7.96838 20.8019 6.39249L23.8635 2.65715Z" stroke="#F64F00" stroke-width="0.919355"/>
</svg>
